<svg width="144" height="41" viewBox="0 0 144 41" fill="none" xmlns="http://www.w3.org/2000/svg">
<path d="M42.1448 28.0459V10.0098H45.4373V17.8779H53.1118V10.0098H56.4285V28.0459H53.1118V20.783H45.4373V28.0459H42.1448Z" fill="#222A34"/>
<path d="M65.1778 28.3365C64.0319 28.3365 63.0151 28.1105 62.1274 27.6586C61.2558 27.1906 60.578 26.545 60.0938 25.7219C59.6096 24.8988 59.3675 23.9465 59.3675 22.8651V14.876H62.539V22.7683C62.539 23.3009 62.652 23.769 62.8779 24.1725C63.1038 24.5759 63.4186 24.8907 63.822 25.1166C64.2256 25.3264 64.6856 25.4314 65.202 25.4314C65.7346 25.4314 66.1946 25.3264 66.582 25.1166C66.9855 24.8907 67.3002 24.5759 67.5262 24.1725C67.7521 23.769 67.8651 23.3009 67.8651 22.7683V14.876H71.0365V22.8651C71.0365 23.9465 70.7864 24.8988 70.2861 25.7219C69.8019 26.545 69.124 27.1906 68.2525 27.6586C67.3809 28.1105 66.356 28.3365 65.1778 28.3365Z" fill="#222A34"/>
<path d="M78.9956 28.3365C77.5919 28.3365 76.3652 28.0057 75.3162 27.3439C74.2832 26.666 73.5731 25.7542 73.1857 24.6082L75.5583 23.4704C75.8972 24.2128 76.3652 24.7938 76.9624 25.2135C77.5757 25.6331 78.2536 25.8429 78.9956 25.8429C79.5773 25.8429 80.0371 25.7138 80.3759 25.4556C80.7147 25.1974 80.8845 24.8584 80.8845 24.4388C80.8845 24.1805 80.8114 23.9707 80.6667 23.8093C80.537 23.6317 80.3515 23.4865 80.1094 23.3735C79.8838 23.2444 79.6339 23.1395 79.3588 23.0588L77.2045 22.4536C76.0909 22.1307 75.2435 21.6385 74.6625 20.9768C74.0976 20.315 73.8152 19.5323 73.8152 18.6285C73.8152 17.8214 74.0169 17.1194 74.4204 16.5222C74.84 15.9089 75.413 15.4328 76.1393 15.0939C76.8817 14.7549 77.729 14.5854 78.6812 14.5854C79.9239 14.5854 81.0212 14.8841 81.9739 15.4812C82.9258 16.0783 83.6041 16.9177 84.0073 17.999L81.5864 19.1369C81.3608 18.5397 80.9811 18.0635 80.4482 17.7085C79.9161 17.3534 79.3187 17.1759 78.6569 17.1759C78.1245 17.1759 77.7048 17.2969 77.3982 17.539C77.0915 17.7811 76.9382 18.0958 76.9382 18.4832C76.9382 18.7253 77.0028 18.9351 77.1319 19.1126C77.261 19.2902 77.4385 19.4355 77.6645 19.5484C77.9066 19.6614 78.1809 19.7663 78.4876 19.8631L80.5936 20.4926C81.6752 20.8154 82.506 21.2996 83.0877 21.9452C83.6843 22.5907 83.983 23.3816 83.983 24.3177C83.983 25.1085 83.7731 25.8106 83.3534 26.4239C82.9344 27.0211 82.3528 27.4892 81.6108 27.8281C80.868 28.167 79.997 28.3365 78.9956 28.3365Z" fill="#222A34"/>
<path d="M102.686 28.0462V14.8762H105.664V16.7299C105.959 16.0817 106.355 15.609 106.85 15.312C107.512 14.9246 108.303 14.731 109.223 14.731H109.997V17.5393H108.86C107.956 17.5393 107.23 17.8217 106.681 18.3866C106.132 18.9353 105.858 19.71 105.858 20.7107V28.0462H102.686Z" fill="#222A34"/>
<path fill-rule="evenodd" clip-rule="evenodd" d="M114.428 27.4165C115.445 28.0299 116.631 28.3365 117.987 28.3365C118.891 28.3365 119.714 28.1993 120.457 27.9249C121.215 27.6505 121.869 27.2713 122.417 26.7871C122.967 26.3029 123.37 25.7461 123.628 25.1166L121.062 23.8577C120.771 24.3742 120.368 24.7858 119.852 25.0924C119.351 25.399 118.738 25.5524 118.012 25.5524C117.285 25.5524 116.639 25.3829 116.075 25.044C115.526 24.7051 115.106 24.229 114.816 23.6156C114.647 23.2295 114.543 22.8098 114.502 22.3567H123.991C124.056 22.1792 124.096 21.9694 124.112 21.7273C124.145 21.4852 124.161 21.2512 124.161 21.0252C124.161 20.1375 124.015 19.3144 123.725 18.5558C123.434 17.7811 123.015 17.0952 122.466 16.498C121.917 15.9009 121.248 15.4328 120.457 15.0939C119.682 14.7549 118.778 14.5854 117.745 14.5854C116.519 14.5854 115.405 14.8841 114.405 15.4812C113.42 16.0783 112.637 16.8935 112.056 17.9264C111.491 18.9432 111.209 20.1133 111.209 21.4368C111.209 22.7118 111.491 23.8738 112.056 24.923C112.621 25.9721 113.412 26.8032 114.428 27.4165ZM119.512 17.7085C120.013 18.0474 120.368 18.5074 120.578 19.0884C120.681 19.354 120.745 19.6365 120.771 19.9358H114.567C114.619 19.6578 114.694 19.3996 114.791 19.1611C115.066 18.5155 115.462 18.0313 115.978 17.7085C116.495 17.3696 117.083 17.2001 117.745 17.2001C118.439 17.2001 119.028 17.3696 119.512 17.7085Z" fill="#222A34"/>
<path d="M132.375 33.3721C130.874 33.3721 129.583 33.0171 128.502 32.3069C127.436 31.5967 126.702 30.6687 126.299 29.5228L129.228 28.4091C129.422 29.0225 129.785 29.5147 130.318 29.8859C130.85 30.2733 131.536 30.467 132.375 30.467C132.94 30.467 133.433 30.3701 133.852 30.1764C134.288 29.9828 134.635 29.6761 134.893 29.2565C135.151 28.853 135.281 28.3365 135.281 27.7071V25.8772C134.991 26.2965 134.62 26.6402 134.167 26.9082C133.473 27.3116 132.658 27.5134 131.721 27.5134C130.704 27.5134 129.817 27.2874 129.058 26.8355C128.316 26.3836 127.743 25.7542 127.339 24.9472C126.952 24.124 126.759 23.1799 126.759 22.1147V14.876H129.93V21.8483C129.93 22.3971 130.043 22.8813 130.269 23.3009C130.495 23.7044 130.81 24.0272 131.213 24.2693C131.617 24.4953 132.077 24.6082 132.593 24.6082C133.125 24.6082 133.586 24.4953 133.973 24.2693C134.377 24.0272 134.691 23.6964 134.917 23.2767C135.143 22.8409 135.256 22.3406 135.256 21.7757V14.876H138.428V27.7071C138.428 28.853 138.161 29.8456 137.628 30.6849C137.112 31.5403 136.394 32.202 135.474 32.67C134.57 33.1381 133.537 33.3721 132.375 33.3721Z" fill="#222A34"/>
<path fill-rule="evenodd" clip-rule="evenodd" d="M86.4204 32.8879V14.876H89.3979V16.4303C89.8114 15.9138 90.3278 15.5005 90.948 15.1907C91.7222 14.7872 92.6183 14.5854 93.6346 14.5854C94.8773 14.5854 95.999 14.8921 97.0004 15.5054C98.001 16.1188 98.7917 16.9419 99.3726 17.9748C99.97 19.0077 100.269 20.1698 100.269 21.461C100.269 22.736 99.9778 23.8981 99.397 24.9472C98.8161 25.9963 98.0245 26.8274 97.0239 27.4407C96.0233 28.0379 94.8859 28.3365 93.611 28.3365C92.6583 28.3365 91.7788 28.1509 90.9715 27.7797C90.4386 27.5184 89.9788 27.1837 89.5921 26.7756V32.8879H86.4204ZM95.1846 24.923C94.6195 25.2619 93.9742 25.4314 93.2479 25.4314C92.5538 25.4314 91.9242 25.2619 91.359 24.923C90.8104 24.584 90.3749 24.1159 90.0519 23.5188C89.7453 22.9216 89.5921 22.2357 89.5921 21.461C89.5921 20.7024 89.7453 20.0245 90.0519 19.4274C90.3749 18.814 90.8104 18.3379 91.359 17.999C91.9242 17.6601 92.5538 17.4906 93.2479 17.4906C93.9742 17.4906 94.6195 17.6682 95.1846 18.0232C95.749 18.3621 96.1852 18.8302 96.4918 19.4274C96.8141 20.0084 96.976 20.6863 96.976 21.461C96.976 22.2357 96.8141 22.9216 96.4918 23.5188C96.1852 24.1159 95.749 24.584 95.1846 24.923Z" fill="#222A34"/>
<path fill-rule="evenodd" clip-rule="evenodd" d="M7.40429 23.4152C8.79079 17.8345 9.6981 14.0431 10.4461 11.186C11.1941 8.32876 10.5458 7.08805 10.5458 7.08805C10.5458 7.08805 11.4506 6.66265 12.0597 6.40625C12.6688 6.14984 13.119 5.98597 13.8751 5.73166C15.3808 5.22527 17.4445 4.65734 19.6268 4.4422C21.7969 4.22825 24.1813 4.35325 26.2601 5.32831C28.3886 6.32674 30.0945 8.1703 30.9234 11.1619L30.945 11.24C31.6057 11.3702 33.2408 11.8787 33.232 15.0077C33.232 15.0077 32.6107 14.3766 31.2182 14.2746C30.3371 14.2099 29.6184 14.1715 28.5864 14.17L26.2418 16.4158L29.7473 18.0026C29.7473 18.0026 28.6618 30.9408 10.8708 31.1397L3.80481 37.9082L4.68406 34.3673L5.52407 30.9847C6.03078 28.9444 6.71085 26.2064 7.40429 23.4152ZM7.61307 31.3357C8.11535 29.3132 8.77829 26.644 9.45396 23.9245C9.88336 22.1962 10.3178 20.4479 10.7193 18.8325L10.7221 18.8295L18.2051 11.0532L12.1415 13.1204L12.1398 13.1209C12.3181 12.4053 12.4423 11.9077 12.4941 11.7018C12.8436 10.3143 12.9403 9.28347 12.9417 8.57267C12.9419 8.48668 12.9407 8.4054 12.9383 8.32876C13.3352 8.16771 13.8864 7.95617 14.5484 7.73347C15.9677 7.25612 17.8663 6.738 19.834 6.54402C21.8137 6.34884 23.7668 6.49162 25.3631 7.24042C26.7787 7.90437 27.9933 9.08013 28.7039 11.1328L7.61307 31.3357Z" fill="#1FB770"/>
<path fill-rule="evenodd" clip-rule="evenodd" d="M9.45392 23.9243C8.77825 26.6439 8.11532 29.313 7.61304 31.3355L10.7221 18.8293L10.7193 18.8323C10.3178 20.4477 9.88332 22.196 9.45392 23.9243ZM12.1414 13.1202L12.494 11.7017C12.4422 11.9075 12.318 12.4052 12.1398 13.1208L12.1414 13.1202Z" fill="#1FB770"/>
<path d="M21.647 11.8339C21.647 12.7169 22.3627 13.4329 23.246 13.4329C24.1291 13.4329 24.8447 12.7169 24.8447 11.8339C24.8447 10.9509 24.1291 10.2349 23.246 10.2349C22.3627 10.2349 21.647 10.9509 21.647 11.8339Z" fill="#1FB770"/>
</svg>
